<svg width="16" height="16" viewBox="0 0 16 16" fill="none" xmlns="http://www.w3.org/2000/svg">
<path fill-rule="evenodd" clip-rule="evenodd" d="M7.06249 0.937377H8.46874C8.72762 0.937377 8.93749 1.1785 8.93749 1.43738V1.90613C8.93749 2.42391 8.51777 2.84362 7.99999 2.84362H4.25C3.73222 2.84362 3.3125 2.42391 3.3125 1.90613V1.43738C3.3125 1.1785 3.52237 0.937377 3.78125 0.937377H5.1875C5.1875 0.419596 5.60722 -0.00012207 6.125 -0.00012207C6.64278 -0.00012207 7.06249 0.419596 7.06249 0.937377ZM9.90623 1.90625H10.8437C11.6192 1.90625 12.25 2.53706 12.25 3.3125V14.5625C12.25 15.3379 11.6192 16 10.8437 16H1.4375C0.662062 16 0 15.3379 0 14.5625V3.3125C0 2.53706 0.662062 1.90625 1.4375 1.90625H2.375C2.375 2.94034 3.2159 3.78125 4.24999 3.78125H7.99999C9.03408 3.78125 9.90623 2.94034 9.90623 1.90625ZM2.04359 4.85606C1.8605 5.03915 1.8605 5.33581 2.04359 5.5189L2.64965 6.12499L2.04356 6.73109C1.86047 6.91418 1.86047 7.21084 2.04356 7.39393C2.22665 7.57702 2.52331 7.57702 2.7064 7.39393L3.31249 6.78784L3.91859 7.39393C4.10168 7.57702 4.39834 7.57702 4.58143 7.39393C4.76452 7.21084 4.76452 6.91418 4.58143 6.73109L3.97534 6.12499L4.58143 5.5189C4.76452 5.33581 4.76452 5.03915 4.58143 4.85606C4.39834 4.67296 4.10168 4.67296 3.91859 4.85606L3.31249 5.46215L2.70643 4.85606C2.52334 4.67296 2.22668 4.67296 2.04359 4.85606ZM3.31253 14.0937C3.43243 14.0937 3.55237 14.048 3.64393 13.9564L5.51893 12.0814C5.70202 11.8983 5.70202 11.6016 5.51893 11.4185C5.33584 11.2355 5.03918 11.2355 4.85609 11.4185L3.31249 12.9621L2.70643 12.3561C2.52334 12.173 2.22668 12.173 2.04359 12.3561C1.86047 12.5392 1.86047 12.8358 2.04362 13.0189L2.98112 13.9564C3.07265 14.048 3.19262 14.0937 3.31253 14.0937ZM3.64393 10.6751L5.51893 8.80015C5.70202 8.61705 5.70202 8.3204 5.51893 8.1373C5.33584 7.95421 5.03918 7.95421 4.85609 8.1373L3.31249 9.68089L2.70643 9.07483C2.52334 8.89174 2.22668 8.89174 2.04359 9.07483C1.86047 9.25793 1.86047 9.55455 2.04362 9.73765L2.98112 10.6751C3.07265 10.7667 3.19262 10.8125 3.31253 10.8125C3.43243 10.8125 3.55237 10.7667 3.64393 10.6751ZM7.06249 13.1562H9.90623C10.1653 13.1562 10.375 12.9466 10.375 12.6875C10.375 12.4284 10.1653 12.2187 9.90623 12.2187H7.06249C6.8034 12.2187 6.59374 12.4284 6.59374 12.6875C6.59374 12.9466 6.8034 13.1562 7.06249 13.1562ZM7.06249 9.87499H9.90623C10.1653 9.87499 10.375 9.66533 10.375 9.40624C10.375 9.14715 10.1653 8.93749 9.90623 8.93749H7.06249C6.8034 8.93749 6.59374 9.14715 6.59374 9.40624C6.59374 9.66533 6.8034 9.87499 7.06249 9.87499ZM7.06249 6.59374H9.90623C10.1653 6.59374 10.375 6.38409 10.375 6.12499C10.375 5.8659 10.1653 5.65624 9.90623 5.65624H7.06249C6.8034 5.65624 6.59374 5.8659 6.59374 6.12499C6.59374 6.38409 6.8034 6.59374 7.06249 6.59374ZM14.5937 2.84375C13.8183 2.84375 13.1875 3.47456 13.1875 4.25V5.65625H16V4.25C16 3.47456 15.3692 2.84375 14.5937 2.84375ZM13.1885 6.59375V11.5559L13.3258 11.4186C14.0253 10.7191 15.1642 10.7191 15.8637 11.4186L16.001 11.5559V6.59375H13.1885ZM13.9877 12.0813C14.3218 11.7471 14.8657 11.7471 15.1998 12.0813L15.736 12.6175L15.0383 14.7107C14.9746 14.9021 14.7956 15.0311 14.5938 15.0311C14.3919 15.0311 14.2129 14.9021 14.1493 14.7107L13.4515 12.6175L13.9877 12.0813Z" fill="#D72C31"/>
</svg>
