<svg width="16" height="13" viewBox="0 0 16 13" fill="none" xmlns="http://www.w3.org/2000/svg">
<path fill-rule="evenodd" clip-rule="evenodd" d="M5.66622 0.799744C5.38379 0.799744 5.19957 1.05255 5.19957 1.30531V5.47761H6.13288V1.81087H14.2659V9.35547H6.13288V8.13322H5.19957V9.86103C5.19957 10.1138 5.38379 10.3666 5.66622 10.3666H14.7325C15.015 10.3666 15.1992 10.1138 15.1992 9.86103V1.30531C15.1992 1.05255 15.015 0.799744 14.7325 0.799744H5.66622ZM2.4665 2.32744C1.74225 2.32744 1.19987 2.99066 1.19987 3.74969V4.36082C1.19987 4.94901 1.52558 5.47967 2.00922 5.68875H1.66582C0.794954 5.68992 0.133765 6.4893 0.132812 7.41656V11.6944C0.132812 11.9472 0.317036 12.2 0.599468 12.2H4.33265C4.61508 12.2 4.79931 11.9472 4.79931 11.6944V7.92212H7.53252C7.81495 7.92212 7.99918 7.66931 7.99918 7.41656V6.19431C7.99918 5.94156 7.81495 5.68875 7.53252 5.68875H2.92378C3.40742 5.47967 3.73312 4.94901 3.73312 4.36082V3.74969C3.73312 2.99066 3.19075 2.32744 2.4665 2.32744ZM13.5981 2.67113H6.79837V3.68226H13.5981V2.67113ZM2.13319 3.74969C2.13319 3.49616 2.30712 3.33856 2.4665 3.33856C2.62588 3.33856 2.79981 3.49616 2.79981 3.74969V4.36082C2.79981 4.61435 2.62588 4.77195 2.4665 4.77195C2.30712 4.77195 2.13319 4.61435 2.13319 4.36082V3.74969ZM13.5981 4.19899H6.79837V5.21011H13.5981V4.19899ZM13.5978 5.72702H8.26469V6.73815H13.5978V5.72702ZM1.06612 7.41656C1.06612 6.99429 1.35945 6.69987 1.66609 6.69987H7.06587V6.911H4.33265C4.05022 6.911 3.86599 7.16381 3.86599 7.41656V11.1889H1.06612V7.41656Z" fill="#D72C31"/>
</svg>
